HIERARCHY
ROOT hips_JNT
{
  OFFSET 0 79.1032 1.32574
  CHANNELS 6 Xposition Yposition Zposition Zrotation Xrotation Yrotation
  JOINT spine_JNT
  {
    OFFSET 0 4.13037 -0.00851196
    CHANNELS 6 Xposition Yposition Zposition Zrotation Xrotation Yrotation
    JOINT spine1_JNT
    {
      OFFSET 0 10.694 -0.00556841
      CHANNELS 6 Xposition Yposition Zposition Zrotation Xrotation Yrotation
      JOINT spine2_JNT
      {
        OFFSET 0 10.1532 -0.0126238
        CHANNELS 6 Xposition Yposition Zposition Zrotation Xrotation Yrotation
        JOINT l_shoulder_JNT
        {
          OFFSET 2.88666 12.5391 -0.534974
          CHANNELS 6 Xposition Yposition Zposition Zrotation Xrotation Yrotation
          JOINT l_arm_JNT
          {
            OFFSET 10.2653 3.8147e-05 2.00272e-05
            CHANNELS 6 Xposition Yposition Zposition Zrotation Xrotation Yrotation
            JOINT l_forearm_JNT
            {
              OFFSET 25.5729 0 0
              CHANNELS 6 Xposition Yposition Zposition Zrotation Xrotation Yrotation
              JOINT l_hand_JNT
              {
                OFFSET 19.8068 -0.345714 0
                CHANNELS 6 Xposition Yposition Zposition Zrotation Xrotation Yrotation
                JOINT l_handThumb1_JNT
                {
                  OFFSET 1.78384 -1.25249 3.61961
                  CHANNELS 6 Xposition Yposition Zposition Zrotation Xrotation Yrotation
                  JOINT l_handThumb2_JNT
                  {
                    OFFSET 2.63924 -0.0236215 -0.0531074
                    CHANNELS 6 Xposition Yposition Zposition Zrotation Xrotation Yrotation
                    JOINT l_handThumb3_JNT
                    {
                      OFFSET 2.81729 0.161941 -1.92873e-05
                      CHANNELS 6 Xposition Yposition Zposition Zrotation Xrotation Yrotation
                      JOINT l_handThumb4_JNT
                      {
                        OFFSET 3.92326 0 -1.52588e-05
                        CHANNELS 6 Xposition Yposition Zposition Zrotation Xrotation Yrotation
                        End Site
                        {
                          OFFSET 0 0 0
                        }
                      }
                    }
                  }
                }
                JOINT l_handIndex1_JNT
                {
                  OFFSET 8.21789 -0.0980638 3.75293
                  CHANNELS 6 Xposition Yposition Zposition Zrotation Xrotation Yrotation
                  JOINT l_handIndex2_JNT
                  {
                    OFFSET 3.89627 0.286875 0
                    CHANNELS 6 Xposition Yposition Zposition Zrotation Xrotation Yrotation
                    JOINT l_handIndex3_JNT
                    {
                      OFFSET 2.31843 0.158301 0
                      CHANNELS 6 Xposition Yposition Zposition Zrotation Xrotation Yrotation
                      JOINT l_handIndex4_JNT
                      {
                        OFFSET 2.56603 -2.28882e-05 0
                        CHANNELS 6 Xposition Yposition Zposition Zrotation Xrotation Yrotation
                        End Site
                        {
                          OFFSET 0 0 0
                        }
                      }
                    }
                  }
                }
                JOINT l_handPinky1_JNT
                {
                  OFFSET 7.34662 -0.990183 -3.35839
                  CHANNELS 6 Xposition Yposition Zposition Zrotation Xrotation Yrotation
                  JOINT l_handPinky2_JNT
                  {
                    OFFSET 2.92345 0.0657637 0
                    CHANNELS 6 Xposition Yposition Zposition Zrotation Xrotation Yrotation
                    JOINT l_handPinky3_JNT
                    {
                      OFFSET 1.90305 -0.0136203 0
                      CHANNELS 6 Xposition Yposition Zposition Zrotation Xrotation Yrotation
                      JOINT l_handPinky4_JNT
                      {
                        OFFSET 2.8257 0 0
                        CHANNELS 6 Xposition Yposition Zposition Zrotation Xrotation Yrotation
                        End Site
                        {
                          OFFSET 0 0 0
                        }
                      }
                    }
                  }
                }
                JOINT l_handRing1_JNT
                {
                  OFFSET 8.73626 -0.299045 -1.40318
                  CHANNELS 6 Xposition Yposition Zposition Zrotation Xrotation Yrotation
                  JOINT l_handRing2_JNT
                  {
                    OFFSET 3.6708 0.00369462 0
                    CHANNELS 6 Xposition Yposition Zposition Zrotation Xrotation Yrotation
                    JOINT l_handRing3_JNT
                    {
                      OFFSET 2.39166 0.00574558 0
                      CHANNELS 6 Xposition Yposition Zposition Zrotation Xrotation Yrotation
                      JOINT l_handRing4_JNT
                      {
                        OFFSET 2.88243 0 0
                        CHANNELS 6 Xposition Yposition Zposition Zrotation Xrotation Yrotation
                        End Site
                        {
                          OFFSET 0 0 0
                        }
                      }
                    }
                  }
                }
                JOINT l_handMiddle1_JNT
                {
                  OFFSET 9.01306 0.0540986 1.28481
                  CHANNELS 6 Xposition Yposition Zposition Zrotation Xrotation Yrotation
                  JOINT l_handMiddle2_JNT
                  {
                    OFFSET 3.91803 0.0559228 0
                    CHANNELS 6 Xposition Yposition Zposition Zrotation Xrotation Yrotation
                    JOINT l_handMiddle3_JNT
                    {
                      OFFSET 2.51718 0.0196203 0
                      CHANNELS 6 Xposition Yposition Zposition Zrotation Xrotation Yrotation
                      JOINT l_handMiddle4_JNT
                      {
                        OFFSET 3.28131 0 0
                        CHANNELS 6 Xposition Yposition Zposition Zrotation Xrotation Yrotation
                        End Site
                        {
                          OFFSET 0 0 0
                        }
                      }
                    }
                  }
                }
              }
            }
          }
        }
        JOINT r_shoulder_JNT
        {
          OFFSET -2.88677 12.5391 -0.534969
          CHANNELS 6 Xposition Yposition Zposition Zrotation Xrotation Yrotation
          JOINT r_arm_JNT
          {
            OFFSET -10.2653 -4.57764e-05 -2.00272e-05
            CHANNELS 6 Xposition Yposition Zposition Zrotation Xrotation Yrotation
            JOINT r_forearm_JNT
            {
              OFFSET -25.5729 0 0
              CHANNELS 6 Xposition Yposition Zposition Zrotation Xrotation Yrotation
              JOINT r_hand_JNT
              {
                OFFSET -19.807 -0.346 0
                CHANNELS 6 Xposition Yposition Zposition Zrotation Xrotation Yrotation
                JOINT r_handThumb1_JNT
                {
                  OFFSET -1.80121 -1.26684 3.57624
                  CHANNELS 6 Xposition Yposition Zposition Zrotation Xrotation Yrotation
                  JOINT r_handThumb2_JNT
                  {
                    OFFSET -2.63925 -0.0236185 -0.053142
                    CHANNELS 6 Xposition Yposition Zposition Zrotation Xrotation Yrotation
                    JOINT r_handThumb3_JNT
                    {
                      OFFSET -2.69898 -0.823876 3.23385e-05
                      CHANNELS 6 Xposition Yposition Zposition Zrotation Xrotation Yrotation
                      JOINT r_handThumb4_JNT
                      {
                        OFFSET -3.8753 -0.61178 -2.783e-05
                        CHANNELS 6 Xposition Yposition Zposition Zrotation Xrotation Yrotation
                        End Site
                        {
                          OFFSET 0 0 0
                        }
                      }
                    }
                  }
                }
                JOINT r_handRing1_JNT
                {
                  OFFSET -8.7541 -0.321932 -1.44759
                  CHANNELS 6 Xposition Yposition Zposition Zrotation Xrotation Yrotation
                  JOINT r_handRing2_JNT
                  {
                    OFFSET -3.67081 0.00366535 1.14975e-05
                    CHANNELS 6 Xposition Yposition Zposition Zrotation Xrotation Yrotation
                    JOINT r_handRing3_JNT
                    {
                      OFFSET -2.39166 0.00568729 0
                      CHANNELS 6 Xposition Yposition Zposition Zrotation Xrotation Yrotation
                      JOINT r_handRing4_JNT
                      {
                        OFFSET -2.88246 2.68889e-05 0
                        CHANNELS 6 Xposition Yposition Zposition Zrotation Xrotation Yrotation
                        End Site
                        {
                          OFFSET 0 0 0
                        }
                      }
                    }
                  }
                }
                JOINT r_handPinky1_JNT
                {
                  OFFSET -7.36435 -1.01523 -3.40195
                  CHANNELS 6 Xposition Yposition Zposition Zrotation Xrotation Yrotation
                  JOINT r_handPinky2_JNT
                  {
                    OFFSET -2.92337 0.0657748 -1.53088e-05
                    CHANNELS 6 Xposition Yposition Zposition Zrotation Xrotation Yrotation
                    JOINT r_handPinky3_JNT
                    {
                      OFFSET -1.90311 -0.0136937 0
                      CHANNELS 6 Xposition Yposition Zposition Zrotation Xrotation Yrotation
                      JOINT r_handPinky4_JNT
                      {
                        OFFSET -2.82564 6.28375e-05 2.02874e-05
                        CHANNELS 6 Xposition Yposition Zposition Zrotation Xrotation Yrotation
                        End Site
                        {
                          OFFSET 0 0 0
                        }
                      }
                    }
                  }
                }
                JOINT r_handMiddle1_JNT
                {
                  OFFSET -9.03092 0.0345364 1.23996
                  CHANNELS 6 Xposition Yposition Zposition Zrotation Xrotation Yrotation
                  JOINT r_handMiddle2_JNT
                  {
                    OFFSET -3.91801 0.0581239 -0.000244626
                    CHANNELS 6 Xposition Yposition Zposition Zrotation Xrotation Yrotation
                    JOINT r_handMiddle3_JNT
                    {
                      OFFSET -2.51717 0.020931 -0.000343851
                      CHANNELS 6 Xposition Yposition Zposition Zrotation Xrotation Yrotation
                      JOINT r_handMiddle4_JNT
                      {
                        OFFSET -3.281 5.34608e-05 0
                        CHANNELS 6 Xposition Yposition Zposition Zrotation Xrotation Yrotation
                        End Site
                        {
                          OFFSET 0 0 0
                        }
                      }
                    }
                  }
                }
                JOINT r_handIndex1_JNT
                {
                  OFFSET -8.23562 -0.114204 3.70825
                  CHANNELS 6 Xposition Yposition Zposition Zrotation Xrotation Yrotation
                  JOINT r_handIndex2_JNT
                  {
                    OFFSET -3.89614 0.2885 -0.000463277
                    CHANNELS 6 Xposition Yposition Zposition Zrotation Xrotation Yrotation
                    JOINT r_handIndex3_JNT
                    {
                      OFFSET -2.31839 0.159237 -0.000487052
                      CHANNELS 6 Xposition Yposition Zposition Zrotation Xrotation Yrotation
                      JOINT r_handIndex4_JNT
                      {
                        OFFSET -2.566 0 0
                        CHANNELS 6 Xposition Yposition Zposition Zrotation Xrotation Yrotation
                        End Site
                        {
                          OFFSET 0 0 0
                        }
                      }
                    }
                  }
                }
              }
            }
          }
        }
        JOINT neck_JNT
        {
          OFFSET 0 17.0656 0.263753
          CHANNELS 6 Xposition Yposition Zposition Zrotation Xrotation Yrotation
          JOINT head_JNT
          {
            OFFSET 0 8.13758 0.00775528
            CHANNELS 6 Xposition Yposition Zposition Zrotation Xrotation Yrotation
            JOINT headtop_End_JNT
            {
              OFFSET 0 29.3713 3.60361
              CHANNELS 6 Xposition Yposition Zposition Zrotation Xrotation Yrotation
              End Site
              {
                OFFSET 0 0 0
              }
            }
            JOINT l_eye_LOC
            {
              OFFSET 5.1001 12.3524 9.66465
              CHANNELS 6 Xposition Yposition Zposition Zrotation Xrotation Yrotation
              JOINT l_eye_JNT
              {
                OFFSET 0 -0.0458202 0
                CHANNELS 6 Xposition Yposition Zposition Zrotation Xrotation Yrotation
                End Site
                {
                  OFFSET 0 0 0
                }
              }
            }
            JOINT r_eye_LOC
            {
              OFFSET -5.0999 12.3066 9.66418
              CHANNELS 6 Xposition Yposition Zposition Zrotation Xrotation Yrotation
              JOINT r_eye_JNT
              {
                OFFSET 0 0 0
                CHANNELS 6 Xposition Yposition Zposition Zrotation Xrotation Yrotation
                End Site
                {
                  OFFSET 0 0 0
                }
              }
            }
          }
        }
      }
    }
  }
  JOINT r_upleg_JNT
  {
    OFFSET -7.5159 1.52588e-05 0
    CHANNELS 6 Xposition Yposition Zposition Zrotation Xrotation Yrotation
    JOINT r_leg_JNT
    {
      OFFSET -0.724057 -37.7363 0.184397
      CHANNELS 6 Xposition Yposition Zposition Zrotation Xrotation Yrotation
      JOINT r_foot_JNT
      {
        OFFSET 0.000125885 -34.5752 -3.52859e-05
        CHANNELS 6 Xposition Yposition Zposition Zrotation Xrotation Yrotation
        JOINT r_toebase_JNT
        {
          OFFSET 1.14441e-05 -6.10491 11.1619
          CHANNELS 6 Xposition Yposition Zposition Zrotation Xrotation Yrotation
          End Site
          {
            OFFSET 0 0 0
          }
        }
      }
    }
  }
  JOINT l_upleg_JNT
  {
    OFFSET 7.51591 0 0
    CHANNELS 6 Xposition Yposition Zposition Zrotation Xrotation Yrotation
    JOINT l_leg_JNT
    {
      OFFSET 0.00021553 -37.7436 0.0132276
      CHANNELS 6 Xposition Yposition Zposition Zrotation Xrotation Yrotation
      JOINT l_foot_JNT
      {
        OFFSET 5.34058e-05 -34.5752 -3.57628e-05
        CHANNELS 6 Xposition Yposition Zposition Zrotation Xrotation Yrotation
        JOINT l_toebase_JNT
        {
          OFFSET 0 -6.10494 11.1619
          CHANNELS 6 Xposition Yposition Zposition Zrotation Xrotation Yrotation
          End Site
          {
            OFFSET 0 0 0
          }
        }
      }
    }
  }
}
MOTION
Frames:	2
Frame Time:	0.0333333
1.75776e-10 79.1032 1.32574 0.00131806 2.0886 -4.21899e-05 -2.1684e-19 4.13037 -0.00851196 0.00692082 -2.0718 0.000146136 -1.73472e-18 10.694 -0.00556841 0.014836 -3.1449 0.00133294 0 10.1532 -0.0126238 0.00924184 -9.41013 0.000194399 2.88666 12.5391 -0.534974 -6.18519 -0.93892 6.62203 10.2653 3.8147e-05 2.00272e-05 -75.5133 9.37004 18.5134 25.5729 3.55271e-15 2.86102e-06 0.406211 -0.0609134 -24.1662 19.8068 -0.345714 6.15208e-06 -4.39058 -1.44014 17.3818 1.78384 -1.25249 3.61961 40.9444 38.6635 -59.0557 2.63924 -0.0236215 -0.0531074 -29.0455 1.04286e-05 2.06885e-05 2.81729 0.161941 -1.92873e-05 -13.2656 -7.54508e-06 -2.60501e-05 3.92326 0 -1.52588e-05 -1.70756e-06 2.0704e-05 2.84947e-05 8.21789 -0.0980638 3.75293 -13.7381 10.5368 -1.76615 3.89627 0.286875 -4.83418e-06 -16.84 4.01549e-05 2.65901e-05 2.31843 0.158301 -1.80224e-06 -5.15213 2.84512e-05 6.30313e-06 2.56603 -2.28882e-05 7.62939e-06 8.2595e-13 -2.77476e-05 1.70755e-06 7.34662 -0.990183 -3.35839 -17.3303 -12.2064 -5.64813 2.92345 0.0657637 8.00052e-06 -27.1729 -7.85923e-05 -3.39399e-05 1.90305 -0.0136203 2.86152e-06 -23.1241 3.4599e-05 -1.66734e-05 2.8257 -7.6294e-06 5.72205e-06 3.4151e-06 2.13443e-07 4.26887e-07 8.73626 -0.299045 -1.40318 -29.207 -9.15575 -7.55431 3.6708 0.00369462 2.91577e-06 -21.1936 1.86092e-05 -7.07605e-08 2.39166 0.00574558 6.85076e-07 -17.4029 -0.00013911 -2.27192e-05 2.88243 7.6294e-06 2.38419e-07 6.83019e-06 1.38738e-06 3.41509e-06 9.01306 0.0540986 1.28481 -18.0347 -3.53971 -2.3203 3.91803 0.0559228 -2.96757e-06 -33.578 -3.16893e-05 6.95126e-06 2.51718 0.0196203 -9.63e-07 -2.31913 -6.12835e-05 -1.6642e-05 3.28131 3.55272e-15 5.72205e-06 8.53774e-06 2.56132e-06 2.56132e-06 -2.88677 12.5391 -0.534969 6.48092 1.40605 -3.44026 -10.2653 -4.57764e-05 -2.00272e-05 74.2628 3.26989 -14.9886 -25.5729 -3.55271e-15 -9.53675e-06 -0.223611 -0.0144465 18.1612 -19.807 -0.346 0 5.71241 6.5708 -9.919 -1.80121 -1.26684 3.57624 -40.889 38.6069 58.9953 -2.63925 -0.0236185 -0.053142 8.78031 -6.36111e-15 1.10413e-05 -2.69898 -0.823876 3.23385e-05 24.5602 0 -1.59493e-05 -3.8753 -0.61178 -2.783e-05 5.46415e-05 -2.71073e-05 6.61675e-06 -8.7541 -0.321932 -1.44759 29.2306 -9.21932 7.59201 -3.67081 0.00366535 1.14975e-05 21.1935 0.000347282 -4.12084e-05 -2.39166 0.00568729 -4.80439e-06 17.4032 -7.95139e-16 -9.45698e-06 -2.88246 2.68889e-05 6.63519e-06 -1.70755e-06 2.13443e-05 -0 -7.36435 -1.01523 -3.40195 17.353 -12.2763 5.672 -2.92337 0.0657748 -1.53088e-05 27.1728 3.75096e-05 -4.28643e-05 -1.90311 -0.0136937 3.52493e-06 23.1244 -4.44811e-05 1.92091e-05 -2.82564 6.28375e-05 2.02874e-05 2.73208e-05 -4.05542e-06 2.86014e-05 -9.03092 0.0345364 1.23996 18.0861 -3.6315 2.35443 -3.91801 0.0581239 -0.000244626 33.578 0.000155956 -0.000133259 -2.51717 0.020931 -0.000343851 2.31916 -5.72942e-05 -4.28665e-05 -3.281 5.34608e-05 9.21197e-07 1.70755e-06 5.54953e-06 -2.86014e-05 -8.23562 -0.114204 3.70825 13.7824 10.4428 1.79361 -3.89614 0.2885 -0.000463277 16.84 -7.0778e-05 4.06945e-05 -2.31839 0.159237 -0.000487052 5.15213 0.00023668 -2.78299e-15 -2.566 -7.68439e-06 -1.0274e-06 -1.70755e-06 -8.53774e-07 -2.73208e-05 -6.93889e-18 17.0656 0.263753 0.000245615 23.8034 -3.13567e-05 0 8.13758 0.00775528 -0.0549822 -8.74424 -0.0139716 5.68135e-07 29.3713 3.60361 -1.95045e-07 5.2964 2.28846e-06 5.1001 12.3524 9.66465 -0.000255643 0.586901 -0 1.01348e-07 -0.0458202 3.33663e-07 9.99398e-17 0 -6 -5.0999 12.3066 9.66418 -0.000255643 0.586901 -0 -8.93836e-08 1.98759e-06 3.33794e-07 1.15262e-18 3.97569e-16 -0 -7.5159 1.52588e-05 7.62939e-06 -0.0223473 -8.15471 -4.529 -0.724057 -37.7363 0.184397 -1.0909 18.4433 0.0909014 0.000125885 -34.5752 -3.52859e-05 0.623118 -12.3935 -8.45331 1.14441e-05 -6.10491 11.1619 0.798063 0.278451 -0.00508442 7.51591 -1.42109e-14 -7.62939e-06 1.15268 -8.3234 4.72226 0.00021553 -37.7436 0.0132276 -0.0123334 18.6981 0.00354675 5.34058e-05 -34.5752 -3.57628e-05 -0.63799 -12.3898 9.34398 -1.90735e-06 -6.10494 11.1619 -0.278492 0.798091 -0.00114875 
1.75776e-10 79.1052 1.32724 0.00131807 2.09875 -4.24459e-05 0 4.13037 -0.00851196 0.00692082 -2.07439 0.000145696 0 10.694 -0.00556841 0.0148361 -3.14867 0.00133775 0 10.1532 -0.0126238 0.00924206 -9.42617 0.000197017 2.88666 12.5391 -0.534974 -6.17878 -0.938051 6.6272 10.2653 3.8147e-05 2.00272e-05 -75.5186 9.37356 18.5281 25.5729 -3.55271e-15 2.86102e-06 0.406347 -0.0609636 -24.1722 19.8068 -0.345714 6.15208e-06 -4.39065 -1.44138 17.3796 1.78383 -1.25249 3.61962 40.9408 38.6681 -59.0535 2.63924 -0.0236215 -0.0531074 -29.0509 1.04267e-05 2.06893e-05 2.81729 0.161941 -1.92873e-05 -13.271 -7.54264e-06 -2.60508e-05 3.92326 8.88179e-16 -1.52588e-05 -1.70756e-06 2.0704e-05 2.84947e-05 8.21789 -0.0980641 3.75293 -13.7508 10.5372 -1.76389 3.89627 0.286875 -4.83416e-06 -16.8524 4.01484e-05 2.65982e-05 2.31843 0.158301 -1.80224e-06 -5.16458 2.84499e-05 6.30931e-06 2.56603 -2.28882e-05 7.62939e-06 8.28634e-13 -2.77476e-05 1.70755e-06 7.34661 -0.990184 -3.35839 -17.3429 -12.2053 -5.65066 2.92345 0.0657637 8.00057e-06 -27.1854 -7.85823e-05 -3.39558e-05 1.90305 -0.0136203 2.86154e-06 -23.1365 3.46031e-05 -1.66662e-05 2.8257 -7.6294e-06 5.72205e-06 3.4151e-06 2.13443e-07 4.26887e-07 8.73626 -0.299045 -1.40317 -29.2195 -9.15415 -7.55624 3.6708 0.00369462 2.91574e-06 -21.206 1.86103e-05 -6.58446e-08 2.39166 0.00574558 6.84871e-07 -17.4153 -0.000139107 -2.27448e-05 2.88243 7.6294e-06 2.38419e-07 6.83019e-06 1.38738e-06 3.41509e-06 9.01306 0.0540983 1.28482 -18.0472 -3.53921 -2.32106 3.91803 0.0559228 -2.96757e-06 -33.5905 -3.16907e-05 6.94444e-06 2.51718 0.0196203 -9.63e-07 -2.33158 -6.12799e-05 -1.66553e-05 3.28131 3.55272e-15 5.72205e-06 8.53774e-06 2.56132e-06 2.56132e-06 -2.88677 12.5391 -0.534969 6.47769 1.40491 -3.43414 -10.2653 -4.57764e-05 -2.00272e-05 74.2638 3.26136 -15.0114 -25.5729 0 -9.53675e-06 -0.223867 -0.0145156 18.1743 -19.807 -0.346 3.55272e-15 5.71349 6.57332 -9.91919 -1.80121 -1.26684 3.57622 -40.8742 38.6261 58.9862 -2.63925 -0.0236185 -0.053142 8.80268 4.77083e-15 1.10339e-05 -2.69898 -0.823876 3.23385e-05 24.5826 -6.36111e-15 -1.59407e-05 -3.8753 -0.61178 -2.783e-05 5.46415e-05 -2.71073e-05 6.61675e-06 -8.7541 -0.321934 -1.44761 29.2531 -9.21644 7.59547 -3.67081 0.00366535 1.14976e-05 21.2158 0.000347265 -4.13429e-05 -2.39166 0.00568729 -4.80439e-06 17.4255 -7.95139e-16 -9.45671e-06 -2.88246 2.68889e-05 6.63519e-06 -1.70755e-06 2.13443e-05 -0 -7.36435 -1.01523 -3.40196 17.3757 -12.2742 5.6765 -2.92337 0.0657748 -1.53087e-05 27.1951 3.74918e-05 -4.28769e-05 -1.90311 -0.0136937 3.52493e-06 23.1467 -4.44736e-05 1.92264e-05 -2.82564 6.28375e-05 2.02874e-05 2.73208e-05 -4.05542e-06 2.86014e-05 -9.03092 0.0345343 1.23994 18.1085 -3.63058 2.35583 -3.91801 0.0581239 -0.000244626 33.6004 0.000155903 -0.00013332 -2.51717 0.020931 -0.000343851 2.34153 -5.7311e-05 -4.28442e-05 -3.281 5.34608e-05 9.21197e-07 1.70755e-06 5.54953e-06 -2.86014e-05 -8.23562 -0.114207 3.70823 13.8052 10.4435 1.78961 -3.89614 0.2885 -0.000463277 16.8624 -7.07604e-05 4.07227e-05 -2.31839 0.159237 -0.000487052 5.1745 0.00023668 -3.18055e-15 -2.566 -7.68439e-06 -1.0274e-06 -1.70755e-06 -8.53774e-07 -2.73208e-05 6.93889e-18 17.0656 0.263753 0.000245615 23.8034 -3.13567e-05 -6.93889e-18 8.13758 0.00775528 -0.0549798 -8.73199 -0.0139625 5.68135e-07 29.3713 3.60361 -1.95045e-07 5.2964 2.28846e-06 5.1001 12.3524 9.66465 -0.000255643 0.586901 5.82407e-19 1.01347e-07 -0.0458202 3.33662e-07 -1.25359e-16 -1.19271e-15 -6 -5.0999 12.3066 9.66418 -0.000255643 0.586901 5.82407e-19 -8.93841e-08 1.98743e-06 3.33793e-07 7.52237e-19 -7.95139e-16 -1.94126e-19 -7.5159 1.52588e-05 7.62939e-06 -0.0215389 -8.15382 -4.52916 -0.724057 -37.7363 0.184397 -1.09094 18.4225 0.0909006 0.000125885 -34.5752 -3.52859e-05 0.623214 -12.3838 -8.45332 1.14441e-05 -6.10491 11.1619 0.798063 0.278451 -0.00508442 7.51591 1.42109e-14 -7.62939e-06 1.15186 -8.32251 4.72241 0.00021553 -37.7436 0.0132276 -0.0122952 18.6773 0.00354146 5.34058e-05 -34.5752 -3.57628e-05 -0.638071 -12.3801 9.344 -1.90735e-06 -6.10494 11.1619 -0.278492 0.798091 -0.00114875 
